<svg xmlns="http://www.w3.org/2000/svg" viewBox="0 0 24 24" role="img" aria-label="Date Register">
<title>Date Register</title>

<rect fill="none" stroke="currentColor" stroke-width="1.8" stroke-linecap="round" stroke-linejoin="round" x="4" y="6" width="16" height="14" rx="3"/>
<path fill="none" stroke="currentColor" stroke-width="1.8" stroke-linecap="round" stroke-linejoin="round" d="M4 9h16"/>
<path fill="none" stroke="currentColor" stroke-width="1.8" stroke-linecap="round" stroke-linejoin="round" d="M8 4v4"/>
<path fill="none" stroke="currentColor" stroke-width="1.8" stroke-linecap="round" stroke-linejoin="round" d="M16 4v4"/>
<path fill="none" stroke="currentColor" stroke-width="1.8" stroke-linecap="round" stroke-linejoin="round" d="M7.5 12h3.5"/>
<path fill="none" stroke="currentColor" stroke-width="1.8" stroke-linecap="round" stroke-linejoin="round" d="M7.5 15h3.5"/>
<path fill="none" stroke="currentColor" stroke-width="1.8" stroke-linecap="round" stroke-linejoin="round" d="M13 12h3.5"/>
<path fill="none" stroke="currentColor" stroke-width="1.8" stroke-linecap="round" stroke-linejoin="round" d="M13 15h3.5"/>
<path fill="var(--accent,#E6A5B8)" stroke="var(--accent,#E6A5B8)" stroke-width="1" d="M17.7 10.6c-.7-1-2.3-.9-2.7.2-.4-1.1-2-1.2-2.7-.2-.7 1 .1 2.2 1.1 3.1.6.5 1.1.9 1.6 1.2.5-.3 1-.7 1.6-1.2 1-.9 1.8-2.1 1.1-3.1z"/>

</svg>
